<svg width="256" height="256" viewBox="0 0 256 256" fill="none" xmlns="http://www.w3.org/2000/svg">
<rect x="1" y="1" width="254" height="254" fill="#E69B15"/>
<path d="M248 87.9992V77.9884C248 44.8542 221.125 17.9898 187.998 17.9988C166.025 17.9988 148.211 35.7344 148.028 57.6489C129.667 36.5444 107.301 19.6217 82.3887 8C77.3395 18.8298 74.5194 30.0975 73.5114 41.3473C53.5427 29.9325 31.921 21.9437 9.53731 17.9988C-0.0569973 72.3846 36.2532 124.259 90.6479 133.847L111.901 137.588C101.868 151.229 98.8502 169.522 105.807 186.307L113.464 204.772C128.26 240.492 169.199 257.447 204.925 242.652C230.812 231.93 246.791 207.43 248 181.15C247.025 181.687 246.104 182.302 245.051 182.731C229.747 189.067 212.191 181.801 205.852 166.501L198.201 148.037C194.559 139.229 188.583 132.158 181.404 126.926L181.968 125.714C188.748 119.583 192.996 111.711 192.996 103.002C192.996 101.283 192.654 99.642 192.351 98.001H237.998C243.518 97.998 248 93.5161 248 87.9992ZM147.998 87.9992C161.807 87.9992 172.998 94.7071 172.998 102.999C172.998 111.282 161.807 117.999 147.998 117.999C134.185 117.999 122.995 111.282 122.995 102.999C122.995 94.7071 134.188 87.9992 147.998 87.9992ZM187.374 174.16C188.691 177.334 190.35 180.253 192.207 182.998L136.705 205.984C134.851 203.242 133.249 200.284 131.929 197.119L128.266 188.272L183.711 165.313L187.374 174.16ZM122.203 169.141C121.393 156.671 128.356 144.503 140.528 139.463C152.696 134.411 166.229 138.104 174.471 147.491L122.203 169.141ZM94.125 114.153C57.9919 107.775 31.78 77.9524 28.3809 43.1052C58.0519 52.333 84.4647 69.0906 105.531 91.8661C104.007 95.3821 102.993 99.081 102.993 102.999C102.993 107.715 104.232 112.206 106.41 116.319L94.125 114.153ZM93.357 54.25C93.063 48.5651 93.153 42.8412 94.098 37.1294C108.61 46.3001 121.522 57.4719 132.676 70.2246C127.447 71.7006 122.722 73.8995 118.612 76.6895C110.731 68.4307 102.3 60.9098 93.357 54.25ZM221.083 203.419C215.674 212.577 207.4 219.981 197.265 224.178C182.247 230.4 165.965 228.564 152.909 220.917L208.225 198.007C212.257 200.38 216.565 202.246 221.083 203.419ZM227.998 78.0004H187.998C176.982 78.0004 168.017 69.0246 168.017 57.9999V57.0909C168.485 46.4861 177.267 37.9993 187.998 37.9993C198.684 37.9993 208.732 42.1602 216.28 49.7081C223.84 57.2679 227.998 67.3027 227.998 77.9884V78.0004Z" fill="#1B1826"/>
<circle cx="188" cy="53" r="6" fill="#1B1826"/>
<path d="M192.764 49.0596L199.763 56.4776L189.624 58.7623L192.764 49.0596Z" fill="#1B1826"/>
<rect x="1" y="1" width="254" height="254" stroke="#1B1826" stroke-width="2"/>
</svg>
