<svg width="100" height="100" viewBox="0 0 100 100" fill="none" xmlns="http://www.w3.org/2000/svg">
<rect width="100" height="100" fill="#E69B15"/>
<circle cx="64.1726" cy="31.7106" r="6" transform="rotate(12.9666 64.1726 31.7106)" fill="#1B1826"/>
<path d="M69.4181 28.918L74.5734 37.7171L64.1812 37.6687L69.4181 28.918Z" fill="#1B1826"/>
<ellipse cx="55.4396" cy="42.3014" rx="6" ry="8" transform="rotate(27.9666 55.4396 42.3014)" fill="#1B1826"/>
<ellipse cx="42.1287" cy="27.2233" rx="18" ry="8.5" transform="rotate(49.6734 42.1287 27.2233)" fill="#1B1826"/>
<ellipse cx="36.5914" cy="32.8897" rx="18" ry="8.5" transform="rotate(15.0775 36.5914 32.8897)" fill="#1B1826"/>
<ellipse cx="46.5742" cy="63.5743" rx="9" ry="16" transform="rotate(12.9666 46.5742 63.5743)" fill="#1B1826"/>
<path d="M45.6038 88.7174L38.6661 75.2292L48.9768 73.9294L45.6038 88.7174Z" fill="#1B1826"/>
<path d="M53.548 89.512L43.3917 84.2112L46.0846 80.8202L53.548 89.512Z" fill="#1B1826"/>
<path d="M38.4216 81.5536L45.8321 90.2905L48.5455 86.916L38.4216 81.5536Z" fill="#E69B15"/>
</svg>
