<svg width="64" height="64" viewBox="0 0 64 64" fill="none" xmlns="http://www.w3.org/2000/svg">
<rect x="1" y="1" width="62" height="62" rx="7" fill="#E69B15"/>
<path d="M62.0661 15.6198C61.708 14.5423 61.0196 13.6051 60.0985 12.9412C59.1774 12.2773 58.0705 11.9205 56.9351 11.9216H52.0784C51.9466 11.9216 51.816 11.9475 51.6942 11.998C51.5724 12.0484 51.4618 12.1224 51.3685 12.2156L47.6469 15.9373H43.6837C42.861 15.9372 42.0482 16.1169 41.3021 16.4637C40.5561 16.8105 39.8948 17.3161 39.3644 17.9451H35.0412C34.5995 17.9459 34.1611 18.0195 33.7434 18.1627L11.4675 2.74094C10.743 2.23936 9.89504 1.94559 9.01551 1.89147C8.13598 1.83735 7.25841 2.02493 6.47787 2.4339C5.69733 2.84287 5.04358 3.45762 4.58744 4.21157C4.13131 4.96551 3.89017 5.8299 3.89017 6.71109V12.089C3.89109 14.2591 4.44006 16.3937 5.48615 18.295C6.53225 20.1962 8.04157 21.8025 9.87412 22.9647H5.86198C4.80687 22.9659 3.79532 23.3856 3.04925 24.1317C2.30318 24.8778 1.88351 25.8893 1.88232 26.9444C1.88606 29.8062 2.90383 32.5741 4.75493 34.7565C6.60602 36.939 9.17064 38.3949 11.9934 38.8657C11.7233 41.3429 12.2182 43.8434 13.4116 46.0309L18.0677 54.567C18.0709 54.5729 18.0751 54.578 18.0784 54.5838L18.0774 54.5844L22.093 61.6118C22.2029 61.804 22.3732 61.9545 22.5774 62.0399C22.7817 62.1253 23.0084 62.1408 23.2224 62.084C23.4363 62.0272 23.6255 61.9012 23.7605 61.7258C23.8954 61.5503 23.9686 61.3351 23.9686 61.1137V54.5021L26.9204 51.5502C27.953 50.5183 28.8749 49.3812 29.6712 48.1576L32.0574 50.5438L33.014 57.24C33.038 57.4079 33.1041 57.5671 33.2063 57.7025C33.3084 57.8379 33.4432 57.9453 33.598 58.0145C33.7529 58.0838 33.9228 58.1126 34.0918 58.0984C34.2609 58.0842 34.4235 58.0274 34.5647 57.9333C35.6296 57.225 36.5028 56.2642 37.1063 55.1366C37.7098 54.009 38.0249 52.7495 38.0235 51.4705V49.0667C38.0235 48.827 37.9378 48.5953 37.7818 48.4133L32.3475 42.0733C32.5429 41.3132 32.6948 40.5426 32.8027 39.7652L37.2448 42.7267L40.1374 48.5117C40.216 48.669 40.3346 48.8028 40.4812 48.8999C40.6278 48.997 40.7974 49.0538 40.9729 49.0647C40.9938 49.0661 41.0146 49.0667 41.0355 49.0667C41.2007 49.0666 41.3634 49.0258 41.5091 48.9478C41.6547 48.8698 41.7789 48.7571 41.8706 48.6196C42.5802 47.5555 43.0203 46.3346 43.1527 45.0624C43.2852 43.7902 43.1061 42.5049 42.6309 41.3173L41.9674 39.6585C41.8961 39.4802 41.7751 39.3261 41.6188 39.2145L35.9104 35.137C36.3763 34.9163 36.8226 34.6565 37.2447 34.3606L42.1996 37.6639L45.1025 46.3724C45.1619 46.5507 45.2702 46.7087 45.415 46.8285C45.5598 46.9483 45.7354 47.025 45.9216 47.0499C46.1079 47.0749 46.2974 47.047 46.4687 46.9696C46.6399 46.8921 46.7859 46.7681 46.8902 46.6118C47.5977 45.5459 48.0834 44.3484 48.3183 43.0909C48.5532 41.8333 48.5325 40.5413 48.2575 39.2919L47.0349 33.7901C46.9787 33.5374 46.8271 33.3161 46.6117 33.1726L42.0295 30.1177C42.4743 29.5009 42.7826 28.7964 42.934 28.0511L48.6831 32.2323C49.285 32.67 49.9961 32.9327 50.738 32.9914C51.4798 33.05 52.2234 32.9024 52.8866 32.5647C53.5497 32.227 54.1065 31.7125 54.4954 31.078C54.8843 30.4436 55.0902 29.7139 55.0902 28.9697V22.9647C55.0913 21.2027 54.428 19.5051 53.2325 18.2107L54.5021 16.9412H61.1137C61.2728 16.9412 61.4296 16.9034 61.5712 16.8309C61.7128 16.7584 61.8351 16.6533 61.9281 16.5243C62.0211 16.3952 62.0821 16.2459 62.1061 16.0887C62.1301 15.9314 62.1164 15.7707 62.0661 15.6198ZM50.1649 16.2587L51.9224 14.5013L52.7944 15.8093L51.6683 16.9355C51.1956 16.6515 50.691 16.4243 50.1649 16.2587ZM47.4423 17.9451L49.56 22.1807C49.6472 22.3552 49.676 22.553 49.6421 22.7451C49.6082 22.9372 49.5134 23.1132 49.3717 23.2473C49.23 23.3813 49.0489 23.4662 48.8553 23.4894C48.6616 23.5126 48.4656 23.4729 48.2963 23.3761L44.0548 20.9524C43.7477 20.7764 43.4925 20.5226 43.3149 20.2165C43.1373 19.9105 43.0436 19.563 43.0431 19.2091V18.0025C43.2546 17.9646 43.4689 17.9454 43.6837 17.9451H47.4423ZM30.886 31.1102L34.8408 28.8206C35.572 30.0117 35.9757 31.3748 36.011 32.772C34.9753 33.4756 33.7728 33.8946 32.5241 33.9869C32.1634 32.9337 31.6077 31.9579 30.886 31.1102H30.886ZM30.3054 41.9367L29.6621 41.2934C27.4634 39.0889 24.6458 37.6059 21.5839 37.0415C21.3373 36.9957 21.0903 36.9582 20.8432 36.9245L29.1113 32.1377C30.3216 33.4135 30.9962 35.1051 30.9961 36.8636C30.9976 38.5782 30.7652 40.2849 30.3054 41.9367H30.3054ZM5.89801 12.089V6.71109C5.89801 6.19631 6.03888 5.69134 6.30535 5.2509C6.57182 4.81045 6.95374 4.45131 7.40972 4.2124C7.86571 3.97349 8.37837 3.86391 8.89218 3.89553C9.40599 3.92715 9.90136 4.09877 10.3246 4.39179L34.5929 21.1929C34.6753 21.2506 34.7482 21.3207 34.809 21.4008L16.3101 14.0012L15.5644 15.8654L33.3125 22.9647H16.7737C13.8903 22.9615 11.1259 21.8146 9.08702 19.7757C7.04814 17.7368 5.90127 14.9724 5.89801 12.089ZM3.89017 26.9444C3.89076 26.4216 4.0987 25.9204 4.46835 25.5507C4.83801 25.1811 5.33921 24.9731 5.86198 24.9726H34.1053C34.3388 24.9726 34.5631 25.0631 34.7313 25.225L11.7112 30.1579L12.1319 32.1211L32.7721 27.6982L19.0135 35.6638C17.482 36.5504 15.744 37.018 13.9744 37.0196C12.2048 37.0212 10.466 36.5567 8.93301 35.6728C7.39997 34.7889 6.12677 33.5168 5.24151 31.9846C4.35625 30.4523 3.89017 28.714 3.89017 26.9444ZM13.9413 39.6942C16.3611 38.7572 19.0012 38.5437 21.5402 39.0797C24.0792 39.6156 26.4077 40.878 28.2424 42.7131L29.5771 44.0479C29.0519 45.315 28.388 46.5201 27.5976 47.6411L25.0695 46.061C23.5958 45.1438 21.9365 44.5659 20.2118 44.3693C18.4872 44.1727 16.7404 44.3623 15.098 44.9243C14.332 43.4628 13.931 41.8375 13.9294 40.1874C13.9294 40.0229 13.9333 39.8585 13.9413 39.6942ZM20.6789 55.0902H21.9608V57.3334L20.6789 55.0902ZM22.5488 53.0824H19.5449L16.0734 46.718C17.3938 46.3174 18.7845 46.2034 20.1524 46.3838C21.5203 46.5641 22.834 47.0346 24.0054 47.7637L26.3463 49.2268C26.0751 49.5355 25.7932 49.8367 25.5007 50.1305L22.5488 53.0824ZM34.7355 55.0928L34.1258 50.825L36.0157 50.3525V51.4705C36.017 52.7891 35.565 54.068 34.7355 55.0928H34.7355ZM35.2002 48.4867L33.3118 48.9588L30.7148 46.3618C31.0569 45.699 31.3625 45.0179 31.6303 44.3218L35.2002 48.4867ZM40.9949 45.7371L39.3178 42.3829L40.5627 41.553L40.7667 42.0631C41.2343 43.2317 41.3143 44.5196 40.9949 45.7371H40.9949ZM39.2682 40.0029L38.0235 40.8327L32.994 37.4797C33 37.2748 33.0039 37.0695 33.0039 36.8635C33.0034 36.5629 32.9877 36.2624 32.9568 35.9633C33.1416 35.9439 33.3253 35.9189 33.5081 35.8885L39.2682 40.0029ZM38.8673 33.0292L40.5779 31.5631L44.4791 34.1639L42.9152 35.7278L38.8673 33.0292ZM46.2053 43.3314L44.1917 37.2908L45.4716 36.0109L46.2975 39.7274C46.5602 40.9184 46.5285 42.1554 46.2053 43.3314V43.3314ZM41.0353 26.9804C41.0355 27.4654 40.9307 27.9446 40.7281 28.3852C40.5254 28.8258 40.2298 29.2173 39.8614 29.5327L37.869 31.2404C37.642 29.9467 37.1595 28.7112 36.4498 27.606C36.8464 27.07 37.0466 26.4139 37.0167 25.7478C36.9867 25.0817 36.7285 24.4462 36.2854 23.948C36.7713 23.3917 37.0329 22.6745 37.0191 21.936C37.0053 21.1976 36.7171 20.4906 36.2107 19.9529H38.2679C37.926 21.0783 37.9432 22.2823 38.3172 23.3974C38.6911 24.5125 39.4032 25.4834 40.3545 26.1751L41.0353 26.6702V26.9804ZM53.0823 28.9697C53.0823 29.3435 52.9789 29.71 52.7836 30.0287C52.5883 30.3474 52.3086 30.6058 51.9755 30.7754C51.6424 30.9451 51.2689 31.0192 50.8963 30.9898C50.5236 30.9603 50.1664 30.8284 49.8641 30.6085L41.5355 24.5514C41.1151 24.246 40.7648 23.8544 40.508 23.4027C40.2512 22.951 40.0939 22.4497 40.0465 21.9323C39.9992 21.4149 40.0629 20.8933 40.2334 20.4025C40.4039 19.9117 40.6773 19.463 41.0353 19.0864V19.2091C41.0362 19.9168 41.2237 20.6118 41.5789 21.224C41.9342 21.8361 42.4445 22.3438 43.0586 22.6957L47.3001 25.1194C47.8436 25.43 48.4726 25.5574 49.0941 25.483C49.7157 25.4085 50.2967 25.136 50.7515 24.7059C51.2062 24.2757 51.5105 23.7106 51.6194 23.0942C51.7282 22.4777 51.6358 21.8426 51.3559 21.2827L49.8526 18.2762C50.8018 18.6396 51.6186 19.2821 52.1952 20.1192C52.7718 20.9562 53.0811 21.9483 53.0823 22.9647V28.9697ZM54.6235 14.9333L53.9542 13.9294H56.9351C57.3838 13.929 57.8282 14.0175 58.2425 14.1898C58.6568 14.3621 59.0329 14.6148 59.349 14.9333H54.6235Z" fill="#1B1826"/>
<rect x="1" y="1" width="62" height="62" rx="7" stroke="#1B1826" stroke-width="2"/>
</svg>
